<svg width="14" height="16" viewBox="0 0 14 16" fill="none" xmlns="http://www.w3.org/2000/svg">
<path d="M7.25952 4.2749H3.25952C3.12691 4.2749 2.99974 4.32758 2.90597 4.42135C2.8122 4.51512 2.75952 4.64229 2.75952 4.7749C2.75952 4.90751 2.8122 5.03469 2.90597 5.12846C2.99974 5.22222 3.12691 5.2749 3.25952 5.2749H7.25952C7.39213 5.2749 7.51931 5.22222 7.61307 5.12846C7.70684 5.03469 7.75952 4.90751 7.75952 4.7749C7.75952 4.64229 7.70684 4.51512 7.61307 4.42135C7.51931 4.32758 7.39213 4.2749 7.25952 4.2749Z" fill="#425466"/>
<path d="M7.25952 6.94995H3.25952C3.12691 6.94995 2.99974 7.00263 2.90597 7.0964C2.8122 7.19017 2.75952 7.31734 2.75952 7.44995C2.75952 7.58256 2.8122 7.70974 2.90597 7.8035C2.99974 7.89727 3.12691 7.94995 3.25952 7.94995H7.25952C7.39213 7.94995 7.51931 7.89727 7.61307 7.8035C7.70684 7.70974 7.75952 7.58256 7.75952 7.44995C7.75952 7.31734 7.70684 7.19017 7.61307 7.0964C7.51931 7.00263 7.39213 6.94995 7.25952 6.94995Z" fill="#425466"/>
<path d="M7.25952 9.68506H3.25952C3.12691 9.68506 2.99974 9.73774 2.90597 9.8315C2.8122 9.92527 2.75952 10.0525 2.75952 10.1851C2.75952 10.3177 2.8122 10.4448 2.90597 10.5386C2.99974 10.6324 3.12691 10.6851 3.25952 10.6851H7.25952C7.39213 10.6851 7.51931 10.6324 7.61307 10.5386C7.70684 10.4448 7.75952 10.3177 7.75952 10.1851C7.75952 10.0525 7.70684 9.92527 7.61307 9.8315C7.51931 9.73774 7.39213 9.68506 7.25952 9.68506Z" fill="#425466"/>
<path d="M11.9349 0.5H2.0649C1.8084 0.500654 1.55455 0.551907 1.31789 0.650823C1.08123 0.749738 0.866404 0.894373 0.685729 1.07644C0.505053 1.25851 0.362073 1.47444 0.264978 1.71185C0.167884 1.94927 0.118582 2.2035 0.119899 2.46V14.655C0.119572 14.7801 0.15256 14.9031 0.215476 15.0113C0.278392 15.1195 0.368968 15.2089 0.477902 15.2705C0.586835 15.3321 0.710201 15.3636 0.835328 15.3618C0.960456 15.3599 1.08284 15.3248 1.1899 15.26L3.0299 14.155C3.05766 14.1377 3.0897 14.1286 3.1224 14.1286C3.1551 14.1286 3.18714 14.1377 3.2149 14.155L5.2599 15.38C5.36746 15.4486 5.49235 15.485 5.6199 15.485C5.74824 15.4843 5.87414 15.4498 5.9849 15.385L8.0399 14.155C8.06766 14.1377 8.0997 14.1286 8.1324 14.1286C8.1651 14.1286 8.19714 14.1377 8.2249 14.155L10.0549 15.26C10.1623 15.3238 10.285 15.3575 10.4099 15.3575C10.5348 15.3575 10.6575 15.3238 10.7649 15.26C10.8725 15.1985 10.9619 15.1097 11.0242 15.0026C11.0866 14.8955 11.1196 14.7739 11.1199 14.65V6.22H12.6899C13.0051 6.21868 13.307 6.09289 13.5299 5.87C13.7528 5.64712 13.8786 5.3452 13.8799 5.03V2.46C13.8812 2.2035 13.8319 1.94927 13.7348 1.71185C13.6377 1.47444 13.4947 1.25851 13.3141 1.07644C13.1334 0.894373 12.9186 0.749738 12.6819 0.650823C12.4453 0.551907 12.1914 0.500654 11.9349 0.5ZM10.1199 14.13L8.7399 13.3C8.55606 13.1909 8.3462 13.1333 8.1324 13.1333C7.9186 13.1333 7.70874 13.1909 7.5249 13.3L5.6249 14.44L3.7299 13.295C3.54387 13.1837 3.33097 13.1254 3.1142 13.1263C2.89743 13.1271 2.68502 13.1872 2.4999 13.3L1.1199 14.135V2.46C1.11791 2.33464 1.14088 2.21015 1.18748 2.09376C1.23408 1.97737 1.30337 1.87141 1.39132 1.78207C1.47927 1.69272 1.58412 1.62177 1.69976 1.57334C1.81541 1.52492 1.93953 1.49998 2.0649 1.5H10.3249C10.1929 1.75155 10.1226 2.03091 10.1199 2.315V14.115V14.13ZM12.8799 5.03C12.8799 5.08039 12.8599 5.12872 12.8243 5.16435C12.7886 5.19998 12.7403 5.22 12.6899 5.22H11.1199V2.33C11.1179 2.22172 11.1375 2.11412 11.1776 2.0135C11.2176 1.91289 11.2774 1.82126 11.3532 1.74399C11.4291 1.66671 11.5196 1.60533 11.6195 1.56344C11.7194 1.52155 11.8266 1.49998 11.9349 1.5C12.1855 1.5 12.4259 1.59956 12.6031 1.77678C12.7803 1.95401 12.8799 2.19437 12.8799 2.445V5.03Z" fill="#425466"/>
</svg>
