<svg width="18" height="18" viewBox="0 0 18 18" fill="none" xmlns="http://www.w3.org/2000/svg">
<g clip-path="url(#clip0_185_7219)">
<path d="M16.4183 1.05469H15.891V0.527344C15.891 0.236109 15.6549 0 15.3636 0C15.0724 0 14.8363 0.236109 14.8363 0.527344V1.05469H12.6918V0.527344C12.6918 0.236109 12.4557 0 12.1644 0C11.8732 0 11.6371 0.236109 11.6371 0.527344V1.05469H9.52771V0.527344C9.52771 0.236109 9.2916 0 9.00037 0C8.70913 0 8.47302 0.236109 8.47302 0.527344V1.05469H6.36365V0.527344C6.36365 0.236109 6.12754 0 5.8363 0C5.54507 0 5.30896 0.236109 5.30896 0.527344V1.05469H3.16443V0.527344C3.16443 0.236109 2.92832 0 2.63708 0C2.34585 0 2.10974 0.236109 2.10974 0.527344V1.05469H1.5824C0.710065 1.05469 0.000366211 1.76439 0.000366211 2.63672C0.000366211 3.28275 0.000366211 15.6924 0.000366211 16.418C0.000366211 17.2903 0.710065 18 1.5824 18H16.4183C17.2907 18 18.0004 17.2903 18.0004 16.418C18.0004 15.6922 18.0004 3.28243 18.0004 2.63672C18.0004 1.76439 17.2907 1.05469 16.4183 1.05469ZM16.9457 16.418C16.9457 16.7087 16.7091 16.9453 16.4183 16.9453H1.5824C1.29162 16.9453 1.05505 16.7087 1.05505 16.418V5.27344H16.9457V16.418ZM16.9457 4.21875H1.05505V2.63672C1.05505 2.34594 1.29162 2.10938 1.5824 2.10938H2.10974V2.63672C2.10974 2.92795 2.34585 3.16406 2.63708 3.16406C2.92832 3.16406 3.16443 2.92795 3.16443 2.63672V2.10938H5.30896V2.63672C5.30896 2.92795 5.54507 3.16406 5.8363 3.16406C6.12754 3.16406 6.36365 2.92795 6.36365 2.63672V2.10938H8.47302V2.63672C8.47302 2.92795 8.70913 3.16406 9.00037 3.16406C9.2916 3.16406 9.52771 2.92795 9.52771 2.63672V2.10938H11.6371V2.63672C11.6371 2.92795 11.8732 3.16406 12.1644 3.16406C12.4557 3.16406 12.6918 2.92795 12.6918 2.63672V2.10938H14.8363V2.63672C14.8363 2.92795 15.0724 3.16406 15.3636 3.16406C15.6549 3.16406 15.891 2.92795 15.891 2.63672V2.10938H16.4183C16.7091 2.10938 16.9457 2.34594 16.9457 2.63672V4.21875Z" fill="url(#paint0_linear_185_7219)"/>
<path d="M13.2192 14.8359H12.6919V13.2539C12.6919 12.3816 11.9822 11.6719 11.1099 11.6719H9.52783V10.4913C10.1416 10.2736 10.5825 9.68748 10.5825 9C10.5825 8.73204 10.506 8.45895 10.4274 8.32159L9.45815 6.62861C9.36418 6.4645 9.18956 6.36328 9.00049 6.36328C8.81142 6.36328 8.6368 6.4645 8.54282 6.62861L7.57357 8.32159C7.49626 8.4567 7.41846 8.72842 7.41846 9C7.41846 9.68748 7.85935 10.2736 8.47314 10.4913V11.6719H6.89111C6.01878 11.6719 5.30908 12.3816 5.30908 13.2539V14.8359H4.78174C4.4905 14.8359 4.25439 15.072 4.25439 15.3633C4.25439 15.6545 4.4905 15.8906 4.78174 15.8906C5.06285 15.8906 12.7806 15.8906 13.2192 15.8906C13.5105 15.8906 13.7466 15.6545 13.7466 15.3633C13.7466 15.072 13.5105 14.8359 13.2192 14.8359ZM8.50633 8.81504L9.00049 7.95196L9.49464 8.81504C9.51669 8.87382 9.52783 8.93591 9.52783 9C9.52783 9.29078 9.29127 9.52734 9.00049 9.52734C8.70971 9.52734 8.47314 9.29078 8.47314 9C8.47314 8.93595 8.48429 8.87386 8.50633 8.81504ZM11.6372 14.8359H6.36377V13.2539C6.36377 12.9631 6.60034 12.7266 6.89111 12.7266H11.1099C11.4006 12.7266 11.6372 12.9631 11.6372 13.2539V14.8359Z" fill="url(#paint1_linear_185_7219)"/>
</g>
<defs>
<linearGradient id="paint0_linear_185_7219" x1="9.00037" y1="0" x2="9.00037" y2="18" gradientUnits="userSpaceOnUse">
<stop stop-color="#1B2459"/>
<stop offset="1" stop-color="#BF1B39"/>
</linearGradient>
<linearGradient id="paint1_linear_185_7219" x1="9.00049" y1="6.36328" x2="9.00049" y2="15.8906" gradientUnits="userSpaceOnUse">
<stop stop-color="#1B2459"/>
<stop offset="1" stop-color="#BF1B39"/>
</linearGradient>
<clipPath id="clip0_185_7219">
<rect width="18" height="18" fill="white" transform="translate(0.000366211)"/>
</clipPath>
</defs>
</svg>
