<svg width="20" height="20" viewBox="0 0 20 20" fill="none" xmlns="http://www.w3.org/2000/svg">
<path d="M14.166 18.125H5.83268C2.15768 18.125 1.04102 17.0083 1.04102 13.3333V6.66667C1.04102 2.99167 2.15768 1.875 5.83268 1.875H14.166C17.841 1.875 18.9577 2.99167 18.9577 6.66667V13.3333C18.9577 17.0083 17.841 18.125 14.166 18.125ZM5.83268 3.125C2.84935 3.125 2.29102 3.69167 2.29102 6.66667V13.3333C2.29102 16.3083 2.84935 16.875 5.83268 16.875H14.166C17.1493 16.875 17.7077 16.3083 17.7077 13.3333V6.66667C17.7077 3.69167 17.1493 3.125 14.166 3.125H5.83268Z" fill="url(#paint0_linear_185_7154)"/>
<path d="M15.8327 7.29199H11.666C11.3243 7.29199 11.041 7.00866 11.041 6.66699C11.041 6.32533 11.3243 6.04199 11.666 6.04199H15.8327C16.1743 6.04199 16.4577 6.32533 16.4577 6.66699C16.4577 7.00866 16.1743 7.29199 15.8327 7.29199Z" fill="url(#paint1_linear_185_7154)"/>
<path d="M15.8331 10.625H12.4998C12.1581 10.625 11.8748 10.3417 11.8748 10C11.8748 9.65833 12.1581 9.375 12.4998 9.375H15.8331C16.1748 9.375 16.4581 9.65833 16.4581 10C16.4581 10.3417 16.1748 10.625 15.8331 10.625Z" fill="url(#paint2_linear_185_7154)"/>
<path d="M15.8327 13.9585H14.166C13.8243 13.9585 13.541 13.6752 13.541 13.3335C13.541 12.9918 13.8243 12.7085 14.166 12.7085H15.8327C16.1743 12.7085 16.4577 12.9918 16.4577 13.3335C16.4577 13.6752 16.1743 13.9585 15.8327 13.9585Z" fill="url(#paint3_linear_185_7154)"/>
<path d="M7.08304 10.0333C5.90804 10.0333 4.94971 9.07492 4.94971 7.89994C4.94971 6.72494 5.90804 5.7666 7.08304 5.7666C8.25804 5.7666 9.21635 6.72494 9.21635 7.89994C9.21635 9.07492 8.25804 10.0333 7.08304 10.0333ZM7.08304 7.0166C6.59971 7.0166 6.19971 7.4166 6.19971 7.89994C6.19971 8.38325 6.59971 8.78325 7.08304 8.78325C7.56637 8.78325 7.96637 8.38325 7.96637 7.89994C7.96637 7.4166 7.56637 7.0166 7.08304 7.0166Z" fill="url(#paint4_linear_185_7154)"/>
<path d="M9.99967 14.2335C9.683 14.2335 9.408 13.9918 9.37467 13.6668C9.283 12.7668 8.558 12.0418 7.64968 11.9585C7.26634 11.9251 6.88301 11.9251 6.49968 11.9585C5.59134 12.0418 4.86634 12.7585 4.77468 13.6668C4.74134 14.0085 4.43301 14.2668 4.09134 14.2251C3.74968 14.1918 3.49968 13.8835 3.53301 13.5418C3.68301 12.0418 4.87468 10.8501 6.38301 10.7168C6.84134 10.6751 7.30801 10.6751 7.76634 10.7168C9.26634 10.8585 10.4663 12.0501 10.6163 13.5418C10.6497 13.8835 10.3997 14.1918 10.058 14.2251C10.0413 14.2335 10.0163 14.2335 9.99967 14.2335Z" fill="url(#paint5_linear_185_7154)"/>
<defs>
<linearGradient id="paint0_linear_185_7154" x1="9.99935" y1="1.875" x2="9.99935" y2="18.125" gradientUnits="userSpaceOnUse">
<stop stop-color="#1B2459"/>
<stop offset="1" stop-color="#BF1B39"/>
</linearGradient>
<linearGradient id="paint1_linear_185_7154" x1="13.7493" y1="6.04199" x2="13.7493" y2="7.29199" gradientUnits="userSpaceOnUse">
<stop stop-color="#1B2459"/>
<stop offset="1" stop-color="#BF1B39"/>
</linearGradient>
<linearGradient id="paint2_linear_185_7154" x1="14.1664" y1="9.375" x2="14.1664" y2="10.625" gradientUnits="userSpaceOnUse">
<stop stop-color="#1B2459"/>
<stop offset="1" stop-color="#BF1B39"/>
</linearGradient>
<linearGradient id="paint3_linear_185_7154" x1="14.9993" y1="12.7085" x2="14.9993" y2="13.9585" gradientUnits="userSpaceOnUse">
<stop stop-color="#1B2459"/>
<stop offset="1" stop-color="#BF1B39"/>
</linearGradient>
<linearGradient id="paint4_linear_185_7154" x1="7.08303" y1="5.7666" x2="7.08303" y2="10.0333" gradientUnits="userSpaceOnUse">
<stop stop-color="#1B2459"/>
<stop offset="1" stop-color="#BF1B39"/>
</linearGradient>
<linearGradient id="paint5_linear_185_7154" x1="7.07467" y1="10.6855" x2="7.07467" y2="14.2335" gradientUnits="userSpaceOnUse">
<stop stop-color="#1B2459"/>
<stop offset="1" stop-color="#BF1B39"/>
</linearGradient>
</defs>
</svg>
