<svg width="29" height="31" viewBox="0 0 29 31" fill="none" xmlns="http://www.w3.org/2000/svg">
<rect width="29" height="31" rx="3" fill="#EAF6FF"/>
<path d="M5.516 15.812C5.516 13.304 7.352 11.528 9.692 11.528C11.504 11.528 12.944 12.44 13.568 14.06H12.26C11.804 13.052 10.916 12.488 9.692 12.488C7.94 12.488 6.632 13.76 6.632 15.812C6.632 17.852 7.94 19.124 9.692 19.124C10.916 19.124 11.804 18.56 12.26 17.564H13.568C12.944 19.172 11.504 20.072 9.692 20.072C7.352 20.072 5.516 18.32 5.516 15.812ZM18.9855 20.084C16.6335 20.084 14.7855 18.32 14.7855 15.812C14.7855 13.304 16.6335 11.54 18.9855 11.54C21.3495 11.54 23.1855 13.304 23.1855 15.812C23.1855 18.32 21.3495 20.084 18.9855 20.084ZM18.9855 19.136C20.7495 19.136 22.0695 17.852 22.0695 15.812C22.0695 13.76 20.7495 12.488 18.9855 12.488C17.2215 12.488 15.9015 13.76 15.9015 15.812C15.9015 17.852 17.2215 19.136 18.9855 19.136Z" fill="black"/>
</svg>
