<svg width="25" height="25" viewBox="0 0 25 25" fill="none" xmlns="http://www.w3.org/2000/svg">
<rect width="25" height="25" rx="3" fill="#EAF6FF"/>
<path d="M3.516 12.812C3.516 10.304 5.352 8.528 7.692 8.528C9.504 8.528 10.944 9.44 11.568 11.06H10.26C9.804 10.052 8.916 9.488 7.692 9.488C5.94 9.488 4.632 10.76 4.632 12.812C4.632 14.852 5.94 16.124 7.692 16.124C8.916 16.124 9.804 15.56 10.26 14.564H11.568C10.944 16.172 9.504 17.072 7.692 17.072C5.352 17.072 3.516 15.32 3.516 12.812ZM16.9855 17.084C14.6335 17.084 12.7855 15.32 12.7855 12.812C12.7855 10.304 14.6335 8.54 16.9855 8.54C19.3495 8.54 21.1855 10.304 21.1855 12.812C21.1855 15.32 19.3495 17.084 16.9855 17.084ZM16.9855 16.136C18.7495 16.136 20.0695 14.852 20.0695 12.812C20.0695 10.76 18.7495 9.488 16.9855 9.488C15.2215 9.488 13.9015 10.76 13.9015 12.812C13.9015 14.852 15.2215 16.136 16.9855 16.136Z" fill="black"/>
</svg>
