<svg width="20" height="14" viewBox="0 0 20 14" fill="none" xmlns="http://www.w3.org/2000/svg">
<path d="M19.7797 2.47615C19.7759 2.47296 19.7708 2.47042 19.7683 2.46724C19.5964 2.29794 19.3584 2.23111 19.1382 2.26739L16.5911 2.30049C16.1882 2.30621 15.8661 2.63653 15.8712 3.03941C15.8763 3.44101 16.1812 3.74079 16.6095 3.75861L17.4624 3.74779L16.2143 4.99588C15.4722 4.44852 14.5786 4.15257 13.6386 4.15257C12.4764 4.15257 11.3836 4.60509 10.5619 5.42676C8.8664 7.12291 8.8664 9.88323 10.5619 11.5794C11.3836 12.401 12.4764 12.8536 13.6386 12.8536C14.8001 12.8536 15.8935 12.401 16.7152 11.5794C18.2172 10.0761 18.391 7.73837 17.2313 6.04476L18.5418 4.73811V5.69216C18.5418 6.09504 18.8689 6.4209 19.2712 6.4209C19.6753 6.4209 20.0006 6.0944 20.0006 5.69216V2.99359C20.0006 2.8001 19.9185 2.61299 19.7797 2.47615ZM15.6841 10.5483C14.592 11.6405 12.6871 11.6405 11.5936 10.5483C10.4658 9.42116 10.4658 7.58562 11.5936 6.45782C12.1403 5.91174 12.8665 5.61069 13.6392 5.61069C14.4125 5.61069 15.1374 5.91174 15.6854 6.45782C16.8126 7.58498 16.8126 9.42116 15.6841 10.5483Z" fill="url(#paint0_linear_185_7193)"/>
<path d="M4.3526 0.524658C1.95316 0.524658 -0.00012207 2.47603 -0.00012207 4.87547C-0.00012207 7.00124 1.53692 8.77568 3.54876 9.1531V10.468H2.40823C2.00535 10.468 1.67949 10.7952 1.67949 11.1974C1.67949 11.5996 2.00535 11.9268 2.40823 11.9268H3.54876V12.7459C3.54876 13.1488 3.8759 13.4753 4.27877 13.4753C4.68165 13.4753 5.00942 13.1475 5.00942 12.7459V11.9268H6.20724C6.61011 11.9268 6.93661 11.5984 6.93661 11.1974C6.93661 10.7932 6.61011 10.468 6.20724 10.468H5.00942V9.17664C7.104 8.85842 8.70278 7.05088 8.70278 4.87547C8.70278 2.47603 6.75204 0.524658 4.3526 0.524658ZM4.3526 7.76689C2.75701 7.76689 1.45991 6.46916 1.45991 4.8742C1.45991 3.27924 2.75701 1.98151 4.3526 1.98151C5.94692 1.98151 7.24466 3.27924 7.24466 4.8742C7.24466 6.46916 5.94756 7.76689 4.3526 7.76689Z" fill="url(#paint1_linear_185_7193)"/>
<defs>
<linearGradient id="paint0_linear_185_7193" x1="14.6454" y1="2.25781" x2="14.6454" y2="12.8536" gradientUnits="userSpaceOnUse">
<stop stop-color="#1B2459"/>
<stop offset="1" stop-color="#BF1B39"/>
</linearGradient>
<linearGradient id="paint1_linear_185_7193" x1="4.35133" y1="0.524658" x2="4.35133" y2="13.4753" gradientUnits="userSpaceOnUse">
<stop stop-color="#1B2459"/>
<stop offset="1" stop-color="#BF1B39"/>
</linearGradient>
</defs>
</svg>
