<svg width="25" height="31" viewBox="0 0 25 31" fill="none" xmlns="http://www.w3.org/2000/svg">
<rect width="25" height="31" rx="3" fill="#007BFF" fill-opacity="0.3"/>
<path d="M8.624 15.608C9.872 15.608 10.4 15.02 10.4 14.084C10.4 13.112 9.872 12.536 8.624 12.536H7.016V15.608H8.624ZM11.516 14.084C11.516 15.356 10.7 16.508 8.624 16.508H7.016V20H5.924V11.636H8.624C10.592 11.636 11.516 12.716 11.516 14.084ZM17.3492 14.096C17.3492 13.148 16.8212 12.536 15.5732 12.536H13.9652V15.704H15.5732C16.8092 15.704 17.3492 15.032 17.3492 14.096ZM15.5732 11.636C17.5412 11.636 18.4772 12.728 18.4772 14.096C18.4772 15.164 17.8892 16.184 16.4852 16.496L18.5852 20H17.2772L15.2852 16.58H13.9652V20H12.8732V11.636H15.5732Z" fill="black"/>
</svg>
