<svg width="25" height="25" viewBox="0 0 25 25" fill="none" xmlns="http://www.w3.org/2000/svg">
<rect width="25" height="25" rx="3" fill="#007BFF" fill-opacity="0.3"/>
<path d="M8.624 12.608C9.872 12.608 10.4 12.02 10.4 11.084C10.4 10.112 9.872 9.536 8.624 9.536H7.016V12.608H8.624ZM11.516 11.084C11.516 12.356 10.7 13.508 8.624 13.508H7.016V17H5.924V8.636H8.624C10.592 8.636 11.516 9.716 11.516 11.084ZM17.3492 11.096C17.3492 10.148 16.8212 9.536 15.5732 9.536H13.9652V12.704H15.5732C16.8092 12.704 17.3492 12.032 17.3492 11.096ZM15.5732 8.636C17.5412 8.636 18.4772 9.728 18.4772 11.096C18.4772 12.164 17.8892 13.184 16.4852 13.496L18.5852 17H17.2772L15.2852 13.58H13.9652V17H12.8732V8.636H15.5732Z" fill="black"/>
</svg>
