<svg width="16" height="16" viewBox="0 0 16 16" fill="none" xmlns="http://www.w3.org/2000/svg">
<path d="M7.54176 4.45093H9.51319C10.166 4.4495 10.1678 3.45285 9.51316 3.45093C9.51319 3.45093 8.6631 3.45093 8.6631 3.45093V2.9978C8.6631 2.72144 8.43898 2.4978 8.16285 2.4978C7.88673 2.4978 7.66285 2.72144 7.66285 2.9978V3.45093C5.54442 3.36936 5.42381 6.47349 7.54181 6.54566C7.54176 6.54565 8.46608 6.54565 8.46608 6.54565C9.18135 6.55799 9.18845 7.62035 8.46605 7.63256H6.49464C5.83876 7.64225 5.83668 8.62214 6.49467 8.63256C6.49464 8.63256 7.66286 8.63256 7.66286 8.63256V9.08569C7.66521 9.73773 8.66027 9.74099 8.6631 9.08566C8.6631 9.08569 8.6631 8.61273 8.6631 8.61273C10.5598 8.33944 10.3829 5.58341 8.46604 5.54565H7.54177C6.82324 5.53336 6.8226 4.46343 7.54176 4.45093Z" fill="#425466"/>
<path d="M4.16865 10.8986C4.59992 10.9123 4.84137 10.3376 4.51848 10.0411C1.33747 6.97892 3.58594 1.46902 8.00394 1.49773C10.7514 1.49769 12.9863 3.73255 12.9863 6.48011C12.9988 6.90976 12.7687 7.5794 13.3799 7.67103C14.039 7.72345 13.974 6.93629 13.9863 6.48011C13.9863 3.18128 11.3027 0.497689 8.00386 0.497689C2.69906 0.463764 -0.000337362 7.07924 3.8188 10.756C3.91621 10.8512 4.04243 10.8986 4.16865 10.8986Z" fill="#425466"/>
<path d="M15.3415 8.86385C15.3284 8.61805 15.1103 8.45549 14.8779 8.42408C14.8779 8.42406 11.3159 8.25267 11.3159 8.25267C10.6646 8.23534 10.6082 9.20721 11.268 9.2517C11.268 9.2517 13.4838 9.35836 13.4838 9.35836L8.89594 12.9172L7.00532 10.383C6.84655 10.1602 6.50392 10.1154 6.29414 10.2898C6.29414 10.2898 0.843454 14.6057 0.843454 14.6057C0.333244 15.0128 0.949784 15.7944 1.46408 15.3899C1.46406 15.3899 6.51142 11.3933 6.51142 11.3933L8.39887 13.9236C8.47919 14.0315 8.59956 14.1023 8.73237 14.1203C8.8642 14.1374 8.99995 14.1018 9.10639 14.0198L14.1002 10.146L13.666 12.323C13.5408 12.9614 14.5134 13.1621 14.6464 12.5183C14.6464 12.5183 15.3442 9.02122 15.3442 9.02122C15.3488 8.96925 15.3502 8.91668 15.3415 8.86385Z" fill="#425466"/>
</svg>
