<svg width="240" height="240" viewBox="0 0 240 240" fill="none" xmlns="http://www.w3.org/2000/svg">
<path d="M240 183.55H0V183.67H240V183.55Z" fill="#D1E3FF"/>
<path d="M188.726 187.199H180.632V187.319H188.726V187.199Z" fill="#D1E3FF"/>
<path d="M215.307 187.139H193.92V187.259H215.307V187.139Z" fill="#D1E3FF"/>
<path d="M153.949 187.946H127.324V188.066H153.949V187.946Z" fill="#D1E3FF"/>
<path d="M124.56 187.946H114.616V188.066H124.56V187.946Z" fill="#D1E3FF"/>
<path d="M72.7479 187.02H68.3799V187.14H72.7479V187.02Z" fill="#D1E3FF"/>
<path d="M82.633 187.02H75.4133V187.14H82.633V187.02Z" fill="#D1E3FF"/>
<path d="M64.0531 189.186H32.1067V189.306H64.0531V189.186Z" fill="#D1E3FF"/>
<path d="M113.767 162.143H21.0792C19.5686 162.143 18.3394 160.914 18.3394 159.404V29.1163C18.3394 27.6057 19.5686 26.3765 21.0792 26.3765H113.767C115.277 26.3765 116.506 27.6057 116.506 29.1163V159.404C116.506 160.914 115.277 162.143 113.767 162.143ZM21.0792 26.4969C19.6344 26.4969 18.4594 27.672 18.4594 29.1168V159.404C18.4594 160.849 19.6344 162.024 21.0792 162.024H113.767C115.211 162.024 116.386 160.849 116.386 159.404V29.1163C116.386 27.672 115.211 26.4965 113.767 26.4965L21.0792 26.4969Z" fill="#D1E3FF"/>
<path d="M217.589 162.143H124.902C123.392 162.143 122.162 160.914 122.162 159.404V29.1163C122.162 27.6057 123.392 26.3765 124.902 26.3765H217.589C219.1 26.3765 220.329 27.6057 220.329 29.1163V159.404C220.329 160.914 219.1 162.143 217.589 162.143ZM124.902 26.4969C123.457 26.4969 122.282 27.672 122.282 29.1168V159.404C122.282 160.849 123.457 162.024 124.902 162.024H217.589C219.034 162.024 220.209 160.849 220.209 159.404V29.1163C220.209 27.672 219.034 26.4965 217.589 26.4965L124.902 26.4969Z" fill="#D1E3FF"/>
<path d="M152.537 125.058H129.806V183.551H152.537V125.058Z" fill="#D1E3FF"/>
<path d="M148.22 183.551H152.538V171.27H143.693L148.22 183.551Z" fill="#EEF9FF"/>
<path d="M67.58 125.058H44.8486V183.551H67.58V125.058Z" fill="#D1E3FF"/>
<path d="M152.537 125.058H63.812V176.015H152.537V125.058Z" fill="#EEF9FF"/>
<path d="M109.624 128.762V160.662H149.188V128.762H109.624Z" fill="#D1E3FF"/>
<path d="M67.1616 128.762V160.662H106.726V128.762H67.1616Z" fill="#D1E3FF"/>
<path d="M149.188 171.271V168.922H109.624V171.271H149.188Z" fill="#D1E3FF"/>
<path d="M106.726 171.27V168.921H67.1614V171.27H106.726Z" fill="#D1E3FF"/>
<path d="M149.188 166.735V164.387H109.624V166.735H149.188Z" fill="#D1E3FF"/>
<path d="M106.726 166.735V164.387H67.1614V166.735H106.726Z" fill="#D1E3FF"/>
<path d="M90.8571 132.197H83.0297C79.6299 132.197 76.3793 130.799 74.0413 128.331H99.8461C97.5075 130.799 94.2574 132.197 90.8571 132.197Z" fill="#EEF9FF"/>
<path d="M133.72 132.197H125.892C122.492 132.197 119.242 130.799 116.903 128.331H142.708C140.37 130.799 137.119 132.197 133.72 132.197Z" fill="#EEF9FF"/>
<path d="M68.1296 183.551H63.812V171.27H72.6565L68.1296 183.551Z" fill="#EEF9FF"/>
<path d="M152.047 35.5146H32.8054V103.625H152.047V35.5146Z" fill="#D1E3FF"/>
<path d="M158.642 33.4131H28.821C28.4836 33.4131 28.21 33.6867 28.21 34.0241C28.21 34.3616 28.4836 34.6352 28.821 34.6352H158.642C158.98 34.6352 159.253 34.3616 159.253 34.0241C159.253 33.6867 158.98 33.4131 158.642 33.4131Z" fill="#D1E3FF"/>
<path d="M154.658 35.5146H34.0261V103.625H154.658V35.5146Z" fill="#E3EEFF"/>
<path d="M152.047 103.625H32.8057V108.479H152.047V103.625Z" fill="#D1E3FF"/>
<path d="M159.009 103.625H38.3767V108.479H159.009V103.625Z" fill="#E3EEFF"/>
<path d="M151.002 99.9692V39.1714L37.6823 39.1714L37.6823 99.9692L151.002 99.9692Z" fill="#F5FCFF"/>
<path d="M93.7622 99.9696L115.223 39.1719H125.353L103.893 99.9696H93.7622Z" fill="white"/>
<path d="M106.069 99.9696L127.529 39.1719H131.479L110.018 99.9696H106.069Z" fill="white"/>
<path d="M151.002 99.9696V39.1719H150.538V99.9696H151.002Z" fill="#D1E3FF"/>
<path d="M37.7249 32.3198H31.4321V90.9864H37.7249V32.3198Z" fill="#EBF3FF"/>
<path d="M40.1764 32.3198H35.2737V90.9864H40.1764V32.3198Z" fill="#D1E3FF"/>
<path d="M44.0177 32.3198H37.7249V90.9864H44.0177V32.3198Z" fill="#EBF3FF"/>
<path d="M46.4691 32.3198H41.5664V90.9864H46.4691V32.3198Z" fill="#D1E3FF"/>
<path d="M50.3106 32.3198H44.0178V90.9864H50.3106V32.3198Z" fill="#EBF3FF"/>
<path d="M148.66 32.3198H145.034V90.9864H148.66V32.3198Z" fill="#EBF3FF"/>
<path d="M150.072 32.3198H147.247V90.9864H150.072V32.3198Z" fill="#D1E3FF"/>
<path d="M152.286 32.3198H148.66V90.9864H152.286V32.3198Z" fill="#EBF3FF"/>
<path d="M153.699 32.3198H150.873V90.9864H153.699V32.3198Z" fill="#D1E3FF"/>
<path d="M155.913 32.3198H152.286V90.9864H155.913V32.3198Z" fill="#EBF3FF"/>
<path d="M188.896 57.7686H180.851V79.719H188.896V57.7686Z" fill="#E3EEFF"/>
<path d="M177.791 83.3794L175.932 88.4549H177.791L189.182 83.3794H177.791Z" fill="#F3F8FF"/>
<path d="M175.932 83.3794V88.4549L187.323 83.3794H175.932Z" fill="#D1E3FF"/>
<path d="M197.273 83.3794L195.415 88.4549H197.273L208.665 83.3794H197.273Z" fill="#F3F8FF"/>
<path d="M195.415 83.3794V88.4549L206.807 83.3794H195.415Z" fill="#D1E3FF"/>
<path d="M167.57 83.6172H179.958V79.7513H167.57V83.6172Z" fill="#D1E3FF"/>
<path d="M215.308 79.751H179.958V83.6169H215.308V79.751Z" fill="#F3F8FF"/>
<path d="M202.295 79.7188H182.715L180.294 53.1201H199.874L202.295 79.7188Z" fill="#D1E3FF"/>
<path d="M203.31 79.7188H183.729L181.308 53.1201H200.889L203.31 79.7188Z" fill="#EEF9FF"/>
<path d="M186.406 76.7745L184.521 56.0645H198.212L200.097 76.7745H186.406Z" fill="white"/>
<path d="M75.5567 116.521C75.5567 116.521 67.1154 101.97 78.8265 90.3867C78.8265 90.3867 81.8831 92.3787 81.8361 95.0571C81.789 97.7355 78.563 98.4128 79.2561 100.648C79.9492 102.883 82.9958 105.076 80.9961 106.924C78.9969 108.771 81.3182 110.416 81.1828 112.68C81.0479 114.943 75.5567 116.521 75.5567 116.521Z" fill="#D1E3FF"/>
<path d="M76.1971 117.851C76.1971 117.851 79.619 101.38 64.8533 94.0806C64.8533 94.0806 62.581 96.9351 63.4699 99.4618C64.3589 101.989 67.6344 101.614 67.681 103.954C67.7275 106.293 65.5287 109.335 68.0083 110.458C70.4885 111.581 68.8037 113.873 69.6461 115.979C70.4885 118.085 76.1971 117.851 76.1971 117.851Z" fill="#D1E3FF"/>
<path d="M63.2634 114.202C63.2634 114.202 63.5442 125.058 74.3063 125.058C85.0684 125.058 85.3492 114.202 85.3492 114.202H63.2634Z" fill="#EEF9FF"/>
<path d="M190.249 183.551H191.346L194.477 168.117L195.027 165.413L198.443 148.593H211.542L218.64 183.551H219.736L212.504 147.948C212.453 147.698 212.235 147.52 211.977 147.52H198.004C197.75 147.52 197.528 147.698 197.481 147.948L194.48 162.721L193.93 165.421L190.249 183.551Z" fill="#EBF3FF"/>
<path d="M169.222 183.551H170.318L177.42 148.592H190.514L193.931 165.42L194.477 168.116L197.612 183.55H198.709L195.027 165.412L194.481 162.72L191.48 147.947C191.429 147.697 191.207 147.519 190.954 147.519H176.98C176.723 147.519 176.505 147.697 176.453 147.947L169.222 183.551Z" fill="#EBF3FF"/>
<path d="M201.507 148.056H177.44C172.845 148.056 169.094 144.38 169.001 139.787L168.104 103.21C168.034 99.7656 170.806 96.936 174.25 96.936H189.337C192.464 96.936 195.092 99.2818 195.446 102.388L201.507 148.056Z" fill="#E3EEFF"/>
<path d="M211.934 143.444H188.382V148.056H214.029C214.693 148.056 215.231 147.518 215.231 146.854V146.74C215.23 144.92 213.755 143.444 211.934 143.444Z" fill="#E3EEFF"/>
<path d="M120 205.229C171.399 205.229 213.067 202.796 213.067 199.794C213.067 196.792 171.399 194.359 120 194.359C68.6007 194.359 26.9333 196.792 26.9333 199.794C26.9333 202.796 68.6007 205.229 120 205.229Z" fill="#F0F6FF"/>
<path opacity="0.2" d="M89.5456 61.5745C89.5461 61.5682 89.5475 61.562 89.5475 61.5553C89.5475 61.55 89.5461 61.5452 89.5461 61.5399C89.5437 60.6543 89.475 59.7629 89.3306 58.8725C88.6154 54.4637 86.2202 50.593 82.5871 47.9741C79.7282 45.9135 76.3754 44.8301 72.9295 44.8085C72.8906 44.8076 72.8517 44.8071 72.8128 44.8071C72.808 44.8071 72.8032 44.8057 72.7979 44.8057C72.7927 44.8057 72.7879 44.8071 72.7826 44.8071C71.897 44.8095 71.0056 44.8781 70.1152 45.0231C65.7059 45.7388 61.8352 48.1335 59.2163 51.7671C58.9643 52.117 58.7311 52.4761 58.5083 52.8404C58.4901 52.8639 58.4738 52.8889 58.4618 52.9162C56.8739 55.5394 56.0488 58.502 56.0498 61.537C56.0493 61.5433 56.0479 61.5495 56.0479 61.5562C56.0479 61.5615 56.0493 61.5663 56.0493 61.5716C56.0512 62.4572 56.1203 63.3485 56.2648 64.2389C56.98 68.6477 59.3752 72.5185 63.0083 75.1373C65.8965 77.2191 69.2872 78.3082 72.7711 78.3082C73.6701 78.3082 74.5759 78.2357 75.4802 78.0889C79.8895 77.3732 83.7597 74.9785 86.3786 71.3449C86.6306 70.9949 86.8638 70.6359 87.0866 70.2716C87.1048 70.2481 87.1211 70.2231 87.1331 70.1957C88.7214 67.5716 89.547 64.609 89.5456 61.5745ZM56.7727 61.1957C56.8303 58.4621 57.5872 55.7981 58.996 53.4197H64.2333C63.4701 55.7583 63.029 58.4165 62.993 61.1957H56.7727ZM64.9672 53.4197H72.4379V61.1957H63.7096C63.7427 58.4002 64.1911 55.7348 64.9672 53.4197ZM73.1574 52.7007V45.5391C74.1467 45.6097 75.1278 45.9677 76.0571 46.6061C77.8355 47.8273 79.3283 49.9868 80.3584 52.7007H73.1574ZM80.6147 53.4197C81.185 55.1074 81.5829 56.9823 81.7682 58.9633C81.8383 59.7125 81.8752 60.4575 81.8853 61.1953H73.157V53.4193L80.6147 53.4197ZM71.3815 45.7239C71.7319 45.625 72.0851 45.5655 72.4379 45.541V52.7007H65.224C66.5829 49.0964 68.7611 46.4612 71.3815 45.7239ZM72.4379 61.9148V69.6908H64.9802C64.4099 68.0031 64.012 66.1282 63.8267 64.1473C63.7567 63.398 63.7197 62.653 63.7096 61.9153L72.4379 61.9148ZM72.4379 70.4098V77.5709C71.4487 77.5004 70.468 77.1423 69.5383 76.5039C67.7594 75.2828 66.2666 73.1233 65.237 70.4093H72.4379V70.4098ZM74.2139 77.3866C73.8631 77.4855 73.5103 77.545 73.157 77.5695V70.4098H80.3709C79.0125 74.0141 76.8343 76.6493 74.2139 77.3866ZM73.1574 69.6908V61.9148H81.8858C81.8522 64.7098 81.4043 67.3757 80.6282 69.6908H73.1574ZM82.6024 61.9148H88.8227C88.7651 64.6484 88.0082 67.3124 86.5999 69.6908H81.3626C82.1253 67.3522 82.5669 64.694 82.6024 61.9148ZM88.8223 61.1957H82.6034C82.5938 60.4354 82.5563 59.6679 82.4843 58.8965C82.301 56.9343 81.9251 55.0897 81.3866 53.4197H86.6099C87.6088 55.1132 88.2967 56.9914 88.6202 58.9873C88.7397 59.7245 88.805 60.4618 88.8223 61.1957ZM82.1661 48.5573C83.7616 49.7074 85.1042 51.1119 86.1597 52.7002H81.1403C80.0637 49.7271 78.4485 47.3751 76.4637 46.0129C76.4128 45.9778 76.3615 45.9461 76.3101 45.913C78.3923 46.382 80.38 47.2705 82.1661 48.5573ZM69.2671 45.9221C67.2501 47.2489 65.5883 49.6705 64.4815 52.7007H59.4482C59.5629 52.5284 59.6781 52.3561 59.7995 52.1871C62.1136 48.9769 65.4491 46.7804 69.2671 45.9221ZM56.7727 61.9148H62.992C63.0016 62.6751 63.0386 63.4426 63.1111 64.214C63.2944 66.1762 63.6703 68.0209 64.2088 69.6908H58.9855C57.9866 67.9973 57.2987 66.1191 56.9752 64.1233C56.8552 63.386 56.7904 62.6487 56.7727 61.9148ZM59.4357 70.4098H64.4551C65.5317 73.3829 67.1469 75.7349 69.1312 77.0972C69.1835 77.1332 69.2363 77.1639 69.2891 77.198C67.2059 76.729 65.2168 75.841 63.4293 74.5527C61.8338 73.4026 60.4912 71.9981 59.4357 70.4098ZM76.3283 77.1884C78.3453 75.8617 80.0066 73.4401 81.1134 70.4098H86.1467C86.032 70.5821 85.9168 70.7545 85.7954 70.9234C83.4818 74.1332 80.1467 76.3301 76.3283 77.1884Z" fill="#318FFF"/>
<path d="M198.857 69.5537H47.9463V106.118H198.857V69.5537Z" fill="#9FC6FF"/>
<path d="M195.455 72.9546H44.5447V109.519H195.455V72.9546Z" fill="#0053CC"/>
<path d="M192.054 76.3564H41.1433V112.92H192.054V76.3564Z" fill="#318FFF"/>
<path d="M184.854 105.721V83.5562L48.3437 83.5562V105.721L184.854 105.721Z" fill="white"/>
<path d="M161.889 83.5562V105.721H162.689V83.5562H161.889Z" fill="#9FC6FF"/>
<path d="M51.7449 86.6119V102.665H52.545V86.6119H51.7449Z" fill="#9FC6FF"/>
<path d="M173.007 97.4148C172.1 97.4148 171.193 97.0697 170.502 96.379C169.121 94.998 169.121 92.7507 170.502 91.3702C171.883 89.9892 174.131 89.9892 175.511 91.3702C176.892 92.7512 176.892 94.9985 175.511 96.379C174.821 97.0697 173.914 97.4148 173.007 97.4148ZM173.007 91.2939C172.345 91.2939 171.685 91.5454 171.181 92.0489C170.174 93.0555 170.174 94.6937 171.181 95.7003C172.188 96.7073 173.826 96.7073 174.832 95.7003C175.839 94.6937 175.839 93.0555 174.832 92.0489C174.329 91.5454 173.668 91.2939 173.007 91.2939Z" fill="#9FC6FF"/>
<path d="M177.598 98.9452C177.475 98.9452 177.352 98.8981 177.259 98.8045L174.834 96.3805C174.647 96.1928 174.647 95.8895 174.834 95.7018C175.022 95.5141 175.325 95.5141 175.513 95.7018L177.938 98.1258C178.125 98.3135 178.125 98.6168 177.938 98.8045C177.844 98.8981 177.721 98.9452 177.598 98.9452Z" fill="#9FC6FF"/>
<path d="M140.445 47.4482H125.353V47.8222H140.445V47.4482Z" fill="#9FC6FF"/>
<path d="M140.445 49.0386H125.353V49.4125H140.445V49.0386Z" fill="#9FC6FF"/>
<path d="M140.445 50.6294H125.353V51.0033H140.445V50.6294Z" fill="#9FC6FF"/>
<path d="M140.445 52.2192H125.353V52.5932H140.445V52.2192Z" fill="#9FC6FF"/>
<path d="M140.445 53.8096H125.353V54.1835H140.445V53.8096Z" fill="#9FC6FF"/>
<path d="M135.193 55.4004H125.354V55.7743H135.193V55.4004Z" fill="#9FC6FF"/>
<path d="M49.6066 116.081H33.5266V116.321H49.6066V116.081Z" fill="#9FC6FF"/>
<path d="M49.6066 117.1H33.5266V117.339H49.6066V117.1Z" fill="#9FC6FF"/>
<path d="M49.6066 118.118H33.5266V118.358H49.6066V118.118Z" fill="#9FC6FF"/>
<path d="M49.6066 119.137H33.5266V119.376H49.6066V119.137Z" fill="#9FC6FF"/>
<path d="M49.6066 120.155H33.5266V120.394H49.6066V120.155Z" fill="#9FC6FF"/>
<path d="M43.6335 121.173H33.5266V121.413H43.6335V121.173Z" fill="#9FC6FF"/>
<path d="M102.454 49.8057C100.779 49.8057 99.4204 51.1641 99.4204 52.8397V62.8477C99.4204 64.5234 100.779 65.8818 102.454 65.8818C104.13 65.8818 105.489 64.5234 105.489 62.8477V52.8397C105.489 51.1641 104.13 49.8057 102.454 49.8057Z" fill="#318FFF"/>
<path d="M110.057 43.8398C108.382 43.8398 107.023 45.1982 107.023 46.8739V62.8478C107.023 64.5235 108.382 65.8819 110.057 65.8819C111.733 65.8819 113.091 64.5235 113.091 62.8478V46.8739C113.091 45.1982 111.733 43.8398 110.057 43.8398Z" fill="#0053CC"/>
<path d="M117.66 55.771C115.984 55.771 114.626 57.1294 114.626 58.8051V62.8476C114.626 64.5233 115.984 65.8817 117.66 65.8817C119.335 65.8817 120.694 64.5233 120.694 62.8476V58.8051C120.693 57.1294 119.335 55.771 117.66 55.771Z" fill="#9FC6FF"/>
<path d="M181.733 124.38H193.998L173.06 102.666L181.733 124.38Z" fill="#197BDD"/>
<path d="M169.945 112.921L173.06 102.666L174.825 112.921H169.945Z" fill="#9FC6FF"/>
<path d="M173.06 102.666V133.053L175.228 130.885L181.733 124.38L173.06 102.666Z" fill="#4EA4F9"/>
<path d="M194.747 37.4937H167.871C165.048 37.4937 162.729 39.813 162.729 42.6354V56.5141C162.729 59.3365 165.048 61.6554 167.871 61.6554H187.592L187.448 66.5097L192.428 61.6554H194.748C197.57 61.6554 199.889 59.3361 199.889 56.5141V42.6354C199.889 39.813 197.57 37.4937 194.747 37.4937ZM167.259 43.4087C167.259 42.6177 167.907 41.9706 168.697 41.9706H174.882C175.673 41.9706 176.302 42.6181 176.302 43.4087C176.302 44.1815 175.673 44.829 174.882 44.829H168.697C167.907 44.829 167.259 44.1815 167.259 43.4087ZM193.219 56.8377H182.523C181.749 56.8377 181.102 56.2089 181.102 55.4173C181.102 54.6263 181.749 53.9975 182.523 53.9975H193.219C194.01 53.9975 194.639 54.6263 194.639 55.4173C194.639 56.2089 194.01 56.8377 193.219 56.8377ZM193.219 50.8329H170.136C169.363 50.8329 168.715 50.2041 168.715 49.413C168.715 48.6215 169.363 47.9927 170.136 47.9927H193.219C194.01 47.9927 194.639 48.6215 194.639 49.413C194.639 50.2041 194.01 50.8329 193.219 50.8329ZM193.219 44.829H179.556C178.765 44.829 178.136 44.1815 178.136 43.4087C178.136 42.6177 178.765 41.9706 179.556 41.9706H193.219C194.01 41.9706 194.639 42.6181 194.639 43.4087C194.639 44.1815 194.01 44.829 193.219 44.829Z" fill="#197BDD"/>
<path d="M152.707 81.4944C151.551 78.3168 149.789 75.4224 147.547 72.96H109.383C107.151 75.4128 105.384 78.3024 104.223 81.4944L109.503 107.779C113.943 112.603 120.211 115.742 127.277 116.069C135.197 116.434 142.45 113.184 147.432 107.779C151.402 103.474 153.936 97.8 154.229 91.4928C154.392 87.9792 153.84 84.6 152.707 81.4944Z" fill="#318FFF"/>
<path d="M154.229 91.4925C153.936 97.7997 151.402 103.473 147.432 107.779H109.503C105 102.897 102.375 96.2829 102.706 89.1213C102.831 86.4477 103.354 83.8845 104.223 81.4941H152.708C153.84 84.5997 154.392 87.9789 154.229 91.4925Z" fill="white"/>
<path opacity="0.4" d="M154.229 91.4927C153.936 97.7999 151.402 103.473 147.432 107.779C142.45 113.184 135.197 116.433 127.277 116.069C120.211 115.742 113.943 112.603 109.503 107.779C105 102.897 102.375 96.2831 102.706 89.1215C102.831 86.4479 103.354 83.8847 104.223 81.4943C105.384 78.3023 107.151 75.4127 109.383 72.9599C114.37 67.4831 121.671 64.1807 129.648 64.5455C136.781 64.8767 143.098 68.0687 147.547 72.9599C149.789 75.4223 151.551 78.3167 152.707 81.4943C153.84 84.5999 154.392 87.9791 154.229 91.4927Z" fill="#D4E8FF"/>
<path opacity="0.4" d="M143.004 69.0067L105.918 102.827C105.728 102.484 105.546 102.137 105.37 101.786C104.252 99.5472 103.456 97.1309 103.033 94.5902V94.5873L135.065 65.3765C137.944 66.1339 140.62 67.3766 143.004 69.0067Z" fill="#D4E8FF"/>
<path opacity="0.4" d="M152.925 82.1149L118.059 113.909C114.414 112.302 111.224 109.88 108.711 106.881L146.784 72.1602C149.539 74.9379 151.658 78.3368 152.925 82.1149Z" fill="#D4E8FF"/>
<path d="M154.218 75.4327C146.003 61.2108 127.814 56.3402 113.592 64.5545C99.37 72.7687 94.4994 90.9583 102.714 105.18C110.929 119.405 129.119 124.275 143.341 116.061C157.563 107.847 162.433 89.657 154.218 75.4327ZM108.145 102.042C101.664 90.8215 105.505 76.469 116.729 69.9866C127.953 63.5042 142.304 67.349 148.785 78.57C155.267 89.7933 151.426 104.146 140.203 110.629C128.98 117.111 114.628 113.266 108.145 102.042Z" fill="#197BDD"/>
<path d="M60.0288 120.907L63.7042 121.764L60.6595 124.038C60.6595 124.038 58.4746 123.046 58.3728 121.496L60.0288 120.907Z" fill="#FF8B7B"/>
<path d="M65.674 124.211L63.022 125.977L60.6594 124.038L63.7041 121.764L65.674 124.211Z" fill="#FF8B7B"/>
<path d="M107.265 105.976C103.357 108.864 99.3531 111.588 95.322 114.264C91.2881 116.936 87.2168 119.543 83.1171 122.1C79.0097 124.644 74.888 127.164 70.7278 129.617C68.6566 130.859 66.56 132.057 64.4777 133.279C63.4476 133.909 62.358 134.437 61.146 134.752C60.5427 134.915 59.9072 135.021 59.239 135.071C58.567 135.115 57.8705 135.116 57.0833 134.96C54.9483 134.536 53.5601 132.462 53.9835 130.327C54.0161 130.163 54.066 129.981 54.1179 129.826C54.3761 129.066 54.7246 128.462 55.0985 127.902C55.4758 127.349 55.8862 126.852 56.3283 126.41C57.2072 125.518 58.2089 124.838 59.2697 124.261C61.3687 123.068 63.4544 121.85 65.5649 120.677C69.7683 118.299 74.01 115.988 78.2667 113.701C82.5305 111.429 86.8227 109.204 91.1528 107.045C95.4852 104.891 99.8456 102.784 104.3 100.842C105.811 100.183 107.569 100.873 108.228 102.384C108.794 103.684 108.36 105.168 107.265 105.976Z" fill="#197BDD"/>
<path d="M65.357 98.1691C65.1179 98.556 64.8415 99.0288 64.5847 99.468C64.3269 99.9187 64.0725 100.374 63.8296 100.836C63.3309 101.753 62.8514 102.684 62.404 103.631C61.9672 104.58 61.5347 105.533 61.1407 106.5C60.953 106.986 60.7504 107.469 60.5728 107.958L60.304 108.693C60.2507 108.831 60.2416 108.888 60.2066 108.987C60.1759 109.074 60.1567 109.185 60.1293 109.284C59.9426 110.129 59.8619 111.155 59.848 112.177C59.8211 113.206 59.8591 114.26 59.9023 115.319C59.9469 116.379 60.0213 117.446 60.1178 118.514C60.1927 119.582 60.3079 120.66 60.4072 121.718L58.5535 122.099C58.2285 121.025 57.9746 119.962 57.7187 118.883C57.485 117.803 57.2723 116.715 57.0885 115.615C56.9075 114.513 56.7727 113.4 56.6915 112.256C56.6267 111.109 56.5869 109.949 56.7827 108.654C56.8144 108.487 56.8346 108.329 56.8783 108.154C56.9181 107.993 56.9661 107.783 57.0031 107.665L57.2378 106.849C57.3933 106.305 57.5719 105.769 57.7519 105.233C58.1229 104.167 58.5242 103.112 58.9759 102.079C59.4299 101.048 59.9075 100.027 60.4293 99.0259C60.6928 98.5272 60.9698 98.0342 61.2525 97.5427C61.541 97.0426 61.8208 96.5818 62.1731 96.0571L65.357 98.1691Z" fill="#FF8B7B"/>
<path d="M63.3094 197.281C62.9643 197.281 62.587 197.21 62.323 197.148C62.2884 197.139 62.2625 197.112 62.2563 197.077C62.25 197.042 62.2654 197.007 62.2951 196.987C62.4228 196.903 63.559 196.174 63.9924 196.368C64.0615 196.398 64.1475 196.467 64.1686 196.617C64.1964 196.814 64.1475 196.972 64.0222 197.087C63.8623 197.231 63.5969 197.281 63.3094 197.281ZM62.5731 197.021C63.2239 197.151 63.7135 197.128 63.9022 196.955C63.9823 196.882 64.0121 196.779 63.9924 196.641C63.9819 196.566 63.9473 196.542 63.9185 196.529C63.69 196.427 63.0358 196.741 62.5731 197.021Z" fill="#0053CC"/>
<path d="M62.3432 197.149C62.3278 197.149 62.3125 197.145 62.2986 197.137C62.2712 197.122 62.2544 197.092 62.2544 197.061C62.2544 197.015 62.2597 195.939 62.6658 195.58C62.7733 195.485 62.8981 195.443 63.0406 195.462C63.2619 195.489 63.3219 195.628 63.3382 195.708C63.4227 196.129 62.7435 196.936 62.3869 197.138C62.3734 197.146 62.3581 197.149 62.3432 197.149ZM62.9792 195.635C62.9067 195.635 62.8424 195.66 62.7834 195.712C62.5414 195.926 62.4579 196.531 62.4373 196.889C62.7925 196.605 63.2163 195.999 63.165 195.743C63.1563 195.701 63.1323 195.651 63.019 195.636C63.0056 195.635 62.9922 195.635 62.9792 195.635Z" fill="#0053CC"/>
<path d="M80.307 197.281C79.8957 197.281 79.4488 197.211 79.1315 197.148C79.0945 197.141 79.0662 197.111 79.0609 197.074C79.0557 197.036 79.0744 197 79.108 196.983C79.276 196.895 80.7645 196.136 81.2233 196.386C81.3121 196.434 81.364 196.516 81.3736 196.621C81.3894 196.797 81.3357 196.942 81.2137 197.051C81.0217 197.224 80.679 197.281 80.307 197.281ZM79.4253 197.022C80.2542 197.159 80.8686 197.123 81.0952 196.919C81.1744 196.848 81.2075 196.756 81.1969 196.636C81.1926 196.59 81.1749 196.56 81.1379 196.54C80.8902 196.404 80.0377 196.728 79.4253 197.022Z" fill="#0053CC"/>
<path d="M79.1484 197.149C79.1302 197.149 79.1124 197.144 79.0975 197.133C79.0716 197.115 79.0577 197.085 79.0601 197.054C79.0634 197.011 79.1498 196.005 79.6193 195.614C79.7628 195.494 79.9279 195.444 80.1094 195.461C80.3546 195.486 80.4252 195.611 80.4415 195.711C80.5106 196.134 79.6298 196.941 79.1844 197.142C79.1734 197.147 79.1609 197.149 79.1484 197.149ZM80.0388 195.634C79.9265 195.634 79.8262 195.672 79.733 195.75C79.4244 196.007 79.3006 196.61 79.2569 196.903C79.711 196.627 80.309 195.993 80.2673 195.739C80.2639 195.718 80.2534 195.653 80.0916 195.637C80.0738 195.635 80.0561 195.634 80.0388 195.634Z" fill="#0053CC"/>
<path d="M71.0166 83.7573C71.3065 85.998 71.9958 90.5431 70.3518 91.9192C70.3518 91.9192 70.8107 94.2031 74.9224 94.47C79.443 94.7637 77.2288 92.3661 77.2288 92.3661C74.7995 91.6164 74.9824 89.79 75.5238 88.0989L71.0166 83.7573Z" fill="#FF8B7B"/>
<path d="M79.4277 79.1929C79.3994 79.1929 79.3706 79.1862 79.3442 79.1718C79.2583 79.1257 79.2257 79.0182 79.2722 78.9318C79.7359 78.0693 80.5495 77.9915 80.5841 77.9886C80.6815 77.9829 80.7669 78.0529 80.7751 78.1504C80.7833 78.2473 80.7113 78.3328 80.6143 78.3414C80.5874 78.3438 79.9543 78.4115 79.5837 79.0998C79.5516 79.1593 79.4906 79.1929 79.4277 79.1929Z" fill="#0F264C"/>
<path d="M80.7163 81.1689C80.7163 81.1689 81.3475 82.4126 81.9667 82.9833C81.6053 83.3904 80.916 83.2853 80.916 83.2853L80.7163 81.1689Z" fill="#FF5652"/>
<path d="M80.3992 80.6786C80.4276 80.9786 80.6095 81.2071 80.8058 81.1884C81.0021 81.1697 81.1379 80.9114 81.1096 80.6114C81.0813 80.3114 80.8994 80.0829 80.7031 80.1017C80.5072 80.1204 80.3709 80.3786 80.3992 80.6786Z" fill="#0F264C"/>
<path d="M80.6182 80.1266L81.3194 79.8511C81.3194 79.8511 81.0026 80.4487 80.6182 80.1266Z" fill="#0F264C"/>
<path d="M75.0396 197.061H78.7764L79.0255 188.408H75.2892L75.0396 197.061Z" fill="#FF8B7B"/>
<path d="M58.062 197.061H61.7988L63.0003 188.408H59.2635L58.062 197.061Z" fill="#FF8B7B"/>
<path d="M62.0302 196.628H57.8321C57.6795 196.628 57.5556 196.734 57.534 196.883L57.0555 200.205C57.006 200.55 57.3022 200.875 57.6545 200.869C59.118 200.844 59.8231 200.758 61.6697 200.758C62.8054 200.758 64.4647 200.876 66.0329 200.876C67.567 200.876 67.6851 199.325 67.0318 199.184C64.1033 198.555 63.6411 197.686 62.6547 196.857C62.4771 196.709 62.2539 196.628 62.0302 196.628Z" fill="#14365B"/>
<path d="M78.9045 196.628H74.7064C74.5537 196.628 74.4299 196.734 74.4083 196.883L73.9302 200.205C73.8808 200.55 74.1769 200.875 74.5293 200.869C75.9928 200.844 76.6979 200.758 78.5445 200.758C79.6801 200.758 82.0293 200.876 83.5979 200.876C85.132 200.876 85.2501 199.325 84.5968 199.184C81.6683 198.555 80.5158 197.686 79.5294 196.857C79.3509 196.709 79.1277 196.628 78.9045 196.628Z" fill="#14365B"/>
<path d="M79.0251 188.41L78.8969 192.87H75.1587L75.2869 188.41H79.0251Z" fill="#EA7063"/>
<path d="M59.262 188.41H63.0002L62.3791 192.87H58.6409L59.262 188.41Z" fill="#EA7063"/>
<path d="M66.9507 98.7454C65.9811 100.344 64.4979 101.827 64.4979 101.827L64.0707 101.544L59.3379 98.3806C59.3379 98.3806 61.9347 92.659 63.8643 92.347C65.7219 92.0494 67.0755 93.9694 67.7139 96.0238C67.9443 96.7678 67.5459 97.7758 66.9507 98.7454Z" fill="#9FC6FF"/>
<path d="M66.9506 98.7457C65.981 100.344 64.4978 101.827 64.4978 101.827L64.0706 101.544C64.2818 99.8161 64.9538 98.1025 65.7218 97.5601C66.1922 97.6081 66.6098 98.1073 66.9506 98.7457Z" fill="#77B3FC"/>
<path d="M83.1411 101.621V101.625C82.9155 103.061 82.6227 104.76 82.2291 106.771C81.7299 109.344 81.0771 112.43 80.2275 116.121C74.2179 115.728 68.0067 115.325 65.0835 115.137C65.7363 108.989 65.9907 105.187 63.8643 92.347C63.8643 92.347 67.0851 91.8622 70.3539 91.9198C72.9075 91.963 75.0003 92.0158 77.2275 92.3662C80.1651 92.827 83.4675 93.7294 83.4675 93.7294C83.4675 93.7294 84.3123 94.0894 83.1411 101.621Z" fill="#9FC6FF"/>
<path d="M83.141 101.621V101.625C82.9154 103.061 82.6226 104.76 82.229 106.771C81.5858 105.518 80.6786 103.075 80.1602 101.28H82.973L83.141 101.621Z" fill="#77B3FC"/>
<path d="M70.2133 80.6003C70.7874 84.2642 70.952 85.827 72.9915 87.543C76.0597 90.124 80.4344 88.6182 80.9667 84.8565C81.4457 81.4706 80.4272 76.048 76.6813 74.9214C72.991 73.8122 69.6397 76.9365 70.2133 80.6003Z" fill="#FF8B7B"/>
<path d="M76.2242 115.858C76.2242 115.858 75.9842 122.525 75.4082 130.934C74.9282 137.99 74.2034 146.266 73.1906 152.861C73.181 152.923 73.1714 152.981 73.1618 153.043C71.3426 164.717 63.2834 192.005 63.2834 192.005H58.1858C58.1858 192.005 62.3858 165.653 63.3074 154.104C65.645 124.886 59.789 121.579 65.0834 115.138L76.2242 115.858Z" fill="#0053CC"/>
<path d="M75.4083 130.934C74.9283 137.99 74.2034 146.266 73.1906 152.861C71.4674 144.293 68.6354 131.779 72.437 123.595C73.3442 125.909 74.4147 128.539 75.4083 130.934Z" fill="#004DAA"/>
<path d="M80.2254 116.12C80.2254 116.12 84.5334 141.727 84.2886 153.123C84.0337 164.975 79.6907 192.007 79.6907 192.007H74.6377C74.6377 192.007 75.4374 165.667 74.9905 154.027C74.5038 141.337 69.1355 115.399 69.1355 115.399L80.2254 116.12Z" fill="#0053CC"/>
<path d="M73.7776 192.242H80.5509L81.0793 189.969L73.5371 190.021L73.7776 192.242Z" fill="#0F264C"/>
<path d="M57.4475 192.242H64.2203L64.7488 189.969L57.4945 190.021L57.4475 192.242Z" fill="#0F264C"/>
<path d="M64.9124 114.232L64.1416 115.544C64.0816 115.645 64.1992 115.761 64.3744 115.772L80.2561 116.804C80.3924 116.813 80.51 116.753 80.5244 116.668L80.7491 115.321C80.7644 115.228 80.6516 115.141 80.5019 115.131L65.1664 114.135C65.0536 114.127 64.9508 114.167 64.9124 114.232Z" fill="#0F264C"/>
<path d="M66.8608 116.081L66.45 116.054C66.3684 116.049 66.3088 116.003 66.3175 115.951L66.6247 114.203C66.6338 114.151 66.7077 114.114 66.7898 114.119L67.2007 114.146C67.2823 114.151 67.3423 114.197 67.3332 114.249L67.026 115.997C67.0168 116.049 66.9424 116.086 66.8608 116.081Z" fill="#0053CC"/>
<path d="M76.8162 116.728L76.4053 116.701C76.3237 116.696 76.2642 116.65 76.2728 116.598L76.58 114.85C76.5891 114.798 76.663 114.761 76.7451 114.766L77.156 114.793C77.2376 114.798 77.2971 114.844 77.2885 114.896L76.9813 116.644C76.9722 116.696 76.8982 116.733 76.8162 116.728Z" fill="#0053CC"/>
<path d="M84.3272 97.5908C84.9013 99.5147 85.4509 101.454 85.9832 103.393L87.5902 109.196L87.7918 109.916L87.8422 110.096L87.8672 110.184L87.883 110.23C87.9075 110.292 87.9104 110.356 87.945 110.419C88.0453 110.673 88.2118 110.95 88.447 111.225C88.9227 111.774 89.635 112.292 90.4131 112.742C91.9798 113.647 93.8614 114.327 95.6864 114.872L95.4118 116.745C93.2643 116.615 91.2162 116.212 89.133 115.389C88.1053 114.952 87.0642 114.412 86.1142 113.524C85.6434 113.08 85.1941 112.54 84.8624 111.882C84.7722 111.725 84.7098 111.543 84.6368 111.372L84.585 111.242L84.5523 111.15L84.4885 110.969L84.2336 110.247C83.564 108.322 82.94 106.395 82.3496 104.459C81.7467 102.526 81.1779 100.588 80.6509 98.6305L84.3272 97.5908Z" fill="#FF8B7B"/>
<path d="M83.4694 93.7301C85.3856 94.3575 87.405 100.638 87.405 100.638L80.4733 103.621C80.4733 103.621 77.577 96.5765 78.8691 94.9632C80.2146 93.2842 81.2658 93.0087 83.4694 93.7301Z" fill="#9FC6FF"/>
<path d="M79.7637 74.7139C78.5369 73.2 69.0813 72.12 68.5759 76.2398C65.2269 78.5904 68.406 84.6672 68.886 86.2137C66.5661 86.8536 59.0993 89.4115 64.5391 94.3728C69.9789 99.3336 78.2052 98.4888 79.8108 93.3556C80.934 89.7652 77.3661 83.7604 77.4458 81.6537C77.5255 79.5475 81.8594 77.2997 79.7637 74.7139Z" fill="#0F264C"/>
<path d="M69.5469 86.9729C69.5123 86.9729 69.4777 86.958 69.4542 86.9292C68.5854 85.8704 65.5653 80.3254 66.6246 77.6811C66.9539 76.8584 67.6365 76.3784 68.6526 76.2541C68.7174 76.2449 68.7784 76.2924 68.7861 76.3587C68.7942 76.4244 68.7472 76.4844 68.6814 76.4921C67.7589 76.6049 67.1416 77.0345 66.8473 77.7704C65.824 80.3249 68.7885 85.7398 69.6395 86.7771C69.6813 86.8284 69.6741 86.9038 69.6227 86.946C69.6006 86.9643 69.5737 86.9729 69.5469 86.9729Z" fill="#0F264C"/>
<path d="M76.7197 81.4286C76.8099 82.1573 77.2064 82.8302 77.66 83.2627C78.3421 83.9136 78.9848 83.4667 79.0477 82.6392C79.1043 81.8942 78.8177 80.6582 78.0118 80.316C77.2169 79.979 76.616 80.5958 76.7197 81.4286Z" fill="#FF8B7B"/>
<path d="M93.305 114.357L96.0348 113.431L95.6047 116.705C95.6047 116.705 94.5319 117.203 93.1404 115.979L91.8098 115.127L92.8553 114.554C92.9997 114.476 93.15 114.41 93.305 114.357Z" fill="#FF8B7B"/>
<path d="M97.938 113.42L97.1033 116.284L95.6052 116.705L96.0353 113.43L97.938 113.42Z" fill="#FF8B7B"/>
</svg>
