<svg width="16" height="18" viewBox="0 0 16 18" fill="none" xmlns="http://www.w3.org/2000/svg">
<path fill-rule="evenodd" clip-rule="evenodd" d="M7.99976 2.33366C6.15881 2.33366 4.66642 3.82604 4.66642 5.66699C4.66642 7.50791 6.15881 9.00033 7.99976 9.00033C9.84067 9.00033 11.3331 7.50791 11.3331 5.66699C11.3331 3.82604 9.84067 2.33366 7.99976 2.33366ZM2.99976 5.66699C2.99976 2.90557 5.23833 0.666992 7.99976 0.666992C10.7612 0.666992 12.9998 2.90557 12.9998 5.66699C12.9998 8.42841 10.7612 10.667 7.99976 10.667C5.23833 10.667 2.99976 8.42841 2.99976 5.66699ZM2.84405 12.8474C4.20261 11.9982 6.02761 11.5003 7.99976 11.5003C9.97192 11.5003 11.7969 11.9982 13.1555 12.8474C14.5023 13.6892 15.4998 14.9587 15.4998 16.5003C15.4998 16.9606 15.1267 17.3337 14.6664 17.3337C14.2062 17.3337 13.8331 16.9606 13.8331 16.5003C13.8331 15.7407 13.3382 14.927 12.2722 14.2607C11.2178 13.6018 9.70951 13.167 7.99976 13.167C6.29001 13.167 4.78166 13.6018 3.72737 14.2607C2.66135 14.927 2.16642 15.7407 2.16642 16.5003C2.16642 16.9606 1.79332 17.3337 1.33309 17.3337C0.872856 17.3337 0.499756 16.9606 0.499756 16.5003C0.499756 14.9587 1.49721 13.6892 2.84405 12.8474Z" fill="url(#paint0_linear_185_7146)"/>
<defs>
<linearGradient id="paint0_linear_185_7146" x1="7.99976" y1="0.666992" x2="7.99976" y2="17.3337" gradientUnits="userSpaceOnUse">
<stop stop-color="#1B2459"/>
<stop offset="1" stop-color="#BF1B39"/>
</linearGradient>
</defs>
</svg>
