<svg width="12" height="16" viewBox="0 0 12 16" fill="none" xmlns="http://www.w3.org/2000/svg">
<path d="M10.6902 5.01642H9.78491V3.87301C9.78491 1.7606 8.08989 0.0551758 5.99037 0.0551758C3.89085 0.0551758 2.19583 1.7606 2.19583 3.87301V5.01642H1.29053C0.577849 5.01642 0 5.59781 0 6.31487V13.7373C0 14.4544 0.577849 15.0552 1.29053 15.0552H10.6902C11.4029 15.0552 12 14.4738 12 13.7373V6.31487C12 5.59781 11.4222 5.01642 10.6902 5.01642ZM3.91011 3.87301C3.91011 2.72959 4.83467 1.77998 5.99037 1.77998C7.14607 1.77998 8.07063 2.71021 8.07063 3.87301V5.01642H3.91011V3.87301ZM6.68379 11.6056V13.5048C6.68379 13.5048 6.60674 13.6404 6.5297 13.6404H5.6244C5.6244 13.6404 5.48957 13.5823 5.48957 13.5048V11.6056C4.87319 11.373 4.43018 10.7722 4.43018 10.0552C4.43018 9.14432 5.18138 8.38851 6.08668 8.38851C6.99197 8.38851 7.74318 9.14432 7.74318 10.0552C7.74318 10.7722 7.30016 11.373 6.68379 11.6056Z" fill="#555073"/>
</svg>
