<svg width="20" height="20" viewBox="0 0 20 20" fill="none" xmlns="http://www.w3.org/2000/svg">
<path d="M16.2501 2.5H14.3751V1.875C14.3751 1.70924 14.3093 1.55027 14.1921 1.43306C14.0749 1.31585 13.9159 1.25 13.7501 1.25C13.5844 1.25 13.4254 1.31585 13.3082 1.43306C13.191 1.55027 13.1251 1.70924 13.1251 1.875V2.5H6.87512V1.875C6.87512 1.70924 6.80927 1.55027 6.69206 1.43306C6.57485 1.31585 6.41588 1.25 6.25012 1.25C6.08436 1.25 5.92539 1.31585 5.80818 1.43306C5.69097 1.55027 5.62512 1.70924 5.62512 1.875V2.5H3.75012C3.4186 2.5 3.10066 2.6317 2.86624 2.86612C2.63182 3.10054 2.50012 3.41848 2.50012 3.75V16.25C2.50012 16.5815 2.63182 16.8995 2.86624 17.1339C3.10066 17.3683 3.4186 17.5 3.75012 17.5H16.2501C16.5816 17.5 16.8996 17.3683 17.134 17.1339C17.3684 16.8995 17.5001 16.5815 17.5001 16.25V3.75C17.5001 3.41848 17.3684 3.10054 17.134 2.86612C16.8996 2.6317 16.5816 2.5 16.2501 2.5ZM5.62512 3.75V4.375C5.62512 4.54076 5.69097 4.69973 5.80818 4.81694C5.92539 4.93415 6.08436 5 6.25012 5C6.41588 5 6.57485 4.93415 6.69206 4.81694C6.80927 4.69973 6.87512 4.54076 6.87512 4.375V3.75H13.1251V4.375C13.1251 4.54076 13.191 4.69973 13.3082 4.81694C13.4254 4.93415 13.5844 5 13.7501 5C13.9159 5 14.0749 4.93415 14.1921 4.81694C14.3093 4.69973 14.3751 4.54076 14.3751 4.375V3.75H16.2501V6.25H3.75012V3.75H5.62512ZM16.2501 16.25H3.75012V7.5H16.2501V16.25Z" fill="#655B96"/>
</svg>
